<svg id="Layer_1" data-name="Layer 1" xmlns="http://www.w3.org/2000/svg" viewBox="0 0 1366 134"><defs><style>.cls-1{fill:#fff;}</style></defs><title>clouds</title><path class="cls-1" d="M1682,321c0,146.91-119.09,266-266,266a265,265,0,0,1-124.81-31,266.11,266.11,0,0,1-326.1,36.31A264.77,264.77,0,0,1,839,624c-137.56,0-250.72-104.41-264.58-238.3a138.07,138.07,0,0,1-196.16-61.76,138,138,0,0,1-256.34-37.57A138,138,0,1,1,180.13,95a54.05,54.05,0,0,1,65.46,25.44c3.76-.31,7.57-.47,11.41-.47a138,138,0,0,1,31.37,3.59,79,79,0,0,1,113.21-10.43,54,54,0,0,1,81.78-15.82,29.95,29.95,0,0,1,41.39,2A82,82,0,0,1,653.38,65.73a45.55,45.55,0,0,1,75.07,29A45.55,45.55,0,0,1,756,75.74c0-.24,0-.49,0-.74a29,29,0,0,1,18.07-26.86A45.55,45.55,0,0,1,864.52,59a85,85,0,0,1,65,4h0a54,54,0,0,1,77.85-9.66,29.95,29.95,0,0,1,41.39,2A82,82,0,0,1,1198.92,49a82,82,0,0,1,110.92,28A265.27,265.27,0,0,1,1416,55C1562.91,55,1682,174.09,1682,321Z"/></svg>