<svg xmlns="http://www.w3.org/2000/svg" viewBox="0 0 729.19 358"><defs><style>.cls-1{fill:#fff;}</style></defs><title>DASH_LOGO_WHITE</title><g id="retouch1"><path class="cls-1" d="M126.58,316.94a54.47,54.47,0,0,1-11.76-1.12,29.1,29.1,0,0,1-8.37-3.06,14.07,14.07,0,0,1-5-4.59,10.51,10.51,0,0,1-1.67-5.76,7.88,7.88,0,0,1,1-4.08,8.61,8.61,0,0,1,2.91-2.91,14.52,14.52,0,0,1,4.45-1.75,25.75,25.75,0,0,1,5.7-.58,26.32,26.32,0,0,0,1.06,7.92,15.5,15.5,0,0,0,3,5.56,11.74,11.74,0,0,0,4.56,3.28,15.46,15.46,0,0,0,5.82,1.07,17,17,0,0,0,5.46-.81,12.44,12.44,0,0,0,4.05-2.18,9.32,9.32,0,0,0,3.42-7.26,12.58,12.58,0,0,0-.56-3.84,9.32,9.32,0,0,0-2-3.4,20.75,20.75,0,0,0-4.08-3.35,66.14,66.14,0,0,0-6.67-3.74,61.22,61.22,0,0,1-7.44-4.4,26.74,26.74,0,0,1-5.35-4.88,18.65,18.65,0,0,1-3.23-5.76,21.37,21.37,0,0,1-1.09-7.07,17.51,17.51,0,0,1,2-8.21,18.78,18.78,0,0,1,5.62-6.43,27.35,27.35,0,0,1,8.84-4.18,42.37,42.37,0,0,1,11.65-1.48,56.3,56.3,0,0,1,10.55.87,29.1,29.1,0,0,1,7.49,2.38,12.08,12.08,0,0,1,4.48,3.55,7.49,7.49,0,0,1-1.86,10.71q-3.33,2.31-10.91,2.31a24.13,24.13,0,0,0-.48-4.67,13.37,13.37,0,0,0-1.69-4.44,10,10,0,0,0-3.28-3.33,9.68,9.68,0,0,0-5.25-1.31,15.19,15.19,0,0,0-4.31.63,12,12,0,0,0-3.84,1.89,9.89,9.89,0,0,0-2.76,3.19,9.21,9.21,0,0,0-1.06,4.54,10.12,10.12,0,0,0,.9,4.47,11,11,0,0,0,2.7,3.42A24.21,24.21,0,0,0,134,271.2c1.8,1,3.91,2.08,6.35,3.28q8.21,4.08,12.13,9a17.69,17.69,0,0,1,3.92,11.3,20.6,20.6,0,0,1-2.09,9.42,19.19,19.19,0,0,1-6,7,28.48,28.48,0,0,1-9.4,4.3A47.39,47.39,0,0,1,126.58,316.94Z"/><path class="cls-1" d="M219,309.9a23,23,0,0,0,8.31-1.32A16,16,0,0,0,233,305a17.62,17.62,0,0,0,3.65-5.49,39.38,39.38,0,0,0,2.23-7l8.37-35.94c.1-.55.2-1.12.29-1.7a9.34,9.34,0,0,0,.13-1.27,2.6,2.6,0,0,0-.58-1.75,3.7,3.7,0,0,0-1.62-1,10.16,10.16,0,0,0-2.49-.49q-1.45-.12-3.15-.12H238.4l1.17-5.24h28.55l-1.22,5.24h-1.38a24.82,24.82,0,0,0-3.38.22,10.59,10.59,0,0,0-3,.85,6.42,6.42,0,0,0-2.36,1.85,7.94,7.94,0,0,0-1.46,3.15l-8.68,37.8a34.67,34.67,0,0,1-3.79,9.86,24.11,24.11,0,0,1-6.41,7.17,28.06,28.06,0,0,1-9.19,4.37,45.25,45.25,0,0,1-12.18,1.48,49.59,49.59,0,0,1-11.23-1.14,25.16,25.16,0,0,1-8.21-3.35,14.51,14.51,0,0,1-6.78-12.71c0-.52,0-1.16.1-1.94s.16-1.58.27-2.41.23-1.63.37-2.42.28-1.49.42-2.07L197.94,257a20.53,20.53,0,0,0,.63-3.4,2.6,2.6,0,0,0-.58-1.75,3.72,3.72,0,0,0-1.61-1,10.08,10.08,0,0,0-2.47-.49q-1.42-.12-3.12-.12h-1.43l1.22-5.24h37.5l-1.17,5.24h-1.43a26,26,0,0,0-3.47.22,11,11,0,0,0-3,.83,6.31,6.31,0,0,0-2.36,1.77,7.66,7.66,0,0,0-1.46,3.06l-8.21,35c-.14.58-.29,1.23-.45,1.94s-.3,1.45-.42,2.21-.23,1.53-.32,2.31a18.81,18.81,0,0,0-.13,2.18c0,3.34,1.13,5.86,3.39,7.58S214.59,309.9,219,309.9Z"/><path class="cls-1" d="M274.06,310.67h1.43a27.52,27.52,0,0,0,3.31-.19,9.39,9.39,0,0,0,2.94-.83,6.9,6.9,0,0,0,2.31-1.79,7.16,7.16,0,0,0,1.4-3.11l11.07-47.9q.27-1,.48-1.92a7.24,7.24,0,0,0,.21-1.34,2.6,2.6,0,0,0-.58-1.75,3.7,3.7,0,0,0-1.62-1,10.16,10.16,0,0,0-2.49-.49q-1.45-.12-3.15-.12H288l1.17-5.24h33.63q12.61,0,19,3.76a12.17,12.17,0,0,1,6.39,11.15,17.74,17.74,0,0,1-1.36,7.19,16.25,16.25,0,0,1-3.73,5.37,20.21,20.21,0,0,1-5.61,3.71,33.73,33.73,0,0,1-7,2.24l-.1.39a19.77,19.77,0,0,1,5.35,1.65,14.19,14.19,0,0,1,4.18,3,12.84,12.84,0,0,1,2.73,4.3,15.12,15.12,0,0,1,1,5.58,22.26,22.26,0,0,1-2,9.67,18.83,18.83,0,0,1-5.94,7.12,28.13,28.13,0,0,1-9.77,4.39A54.25,54.25,0,0,1,312.36,316H272.9Zm27.23-.77h7.52a24,24,0,0,0,7.81-1.12,12.56,12.56,0,0,0,5.22-3.31,13.24,13.24,0,0,0,2.94-5.41,27,27,0,0,0,.93-7.46c0-3.63-.9-6.32-2.7-8.09s-4.6-2.64-8.37-2.64H307.8Zm7.94-34.2h6.09q7.69,0,11.1-3.67t3.42-10.47q0-5.3-2.6-7.92T319.67,251h-4.82Z"/><path class="cls-1" d="M475.62,245l-1.17,5.24H473a25,25,0,0,0-3.39.22,10.78,10.78,0,0,0-3,.85,6.5,6.5,0,0,0-2.36,1.85,8.07,8.07,0,0,0-1.45,3.15L451.67,305a7,7,0,0,0-.34,1.21,5.82,5.82,0,0,0-.13,1.07,2.51,2.51,0,0,0,.58,1.73,4,4,0,0,0,1.62,1,10,10,0,0,0,2.49.48q1.46.12,3.15.12h1.37l-1.16,5.3h-37l1.16-5.3h1.43a28.64,28.64,0,0,0,3.39-.19,9.32,9.32,0,0,0,3-.85,7.41,7.41,0,0,0,2.35-1.82,7,7,0,0,0,1.43-3.16l11.5-49.89L410.62,316h-7.46l-8.8-61.21-11.49,49.45c-.18.75-.31,1.39-.4,1.92a7.84,7.84,0,0,0-.13,1.19,2.51,2.51,0,0,0,.58,1.73,4,4,0,0,0,1.64,1,10.65,10.65,0,0,0,2.52.48q1.46.12,3.15.12h.37l-1.22,5.3H362.05l1.17-5.3h1.43a27.64,27.64,0,0,0,3.31-.19,9.39,9.39,0,0,0,2.94-.83,6.86,6.86,0,0,0,2.3-1.79,7.17,7.17,0,0,0,1.41-3.11L385.68,257a16.71,16.71,0,0,0,.68-3.4,2.6,2.6,0,0,0-.58-1.75,3.66,3.66,0,0,0-1.61-1,10.16,10.16,0,0,0-2.49-.49q-1.46-.12-3.15-.12h-1.38l1.16-5.24h30.25l7.31,48.33L444.26,245Z"/><path class="cls-1" d="M481.61,316l1.17-5.3h1.43a27.64,27.64,0,0,0,3.31-.19,9.46,9.46,0,0,0,2.94-.83,6.86,6.86,0,0,0,2.3-1.79,7.17,7.17,0,0,0,1.41-3.11l11.28-48.87a7.12,7.12,0,0,0,.34-1.22,5.73,5.73,0,0,0,.13-1.07,2.6,2.6,0,0,0-.58-1.75,3.66,3.66,0,0,0-1.61-1,10.16,10.16,0,0,0-2.49-.49q-1.46-.12-3.15-.12h-1.38l1.16-5.24h37.45l-1.22,5.24h-1.37a26,26,0,0,0-3.47.22,10.79,10.79,0,0,0-3,.85,6.65,6.65,0,0,0-2.38,1.85,7.29,7.29,0,0,0-1.43,3.15L511.22,305c-.07.35-.16.76-.26,1.21a4.83,4.83,0,0,0-.16,1.07,2.51,2.51,0,0,0,.58,1.73,4,4,0,0,0,1.64,1,10.65,10.65,0,0,0,2.52.48q1.46.12,3.15.12h1.43L518.9,316Z"/><path class="cls-1" d="M555.14,316l1.22-5.3h1.38a27.64,27.64,0,0,0,3.31-.19,9.54,9.54,0,0,0,2.94-.83,6.86,6.86,0,0,0,2.3-1.79,7.69,7.69,0,0,0,1.46-3.11L580,251H571.3a13.89,13.89,0,0,0-4.32.58,8.72,8.72,0,0,0-3.07,1.73,10,10,0,0,0-2.2,2.79A26.85,26.85,0,0,0,560,260l-1.54,4.27h-7.26l5-19.28h67.48l-3.76,19.28h-7.31c0-.22.1-.73.19-1.53s.18-1.64.29-2.55.2-1.74.29-2.5.13-1.22.13-1.39a4.62,4.62,0,0,0-1.72-3.93q-1.72-1.31-5.9-1.31h-8.64l-12.5,54c-.07.35-.16.76-.26,1.21a4.83,4.83,0,0,0-.16,1.07,2.51,2.51,0,0,0,.58,1.73,4,4,0,0,0,1.64,1,10.65,10.65,0,0,0,2.52.48q1.45.12,3.15.12h1.43l-1.17,5.3Z"/><path class="cls-1" d="M569.93,56.53a18.36,18.36,0,0,1-8.4,16q-8.4,5.81-27.46,5.81a61.87,61.87,0,0,0-1.19-11.75,34.65,34.65,0,0,0-4.27-11.18A25.75,25.75,0,0,0,520.34,47a23.35,23.35,0,0,0-11.76-3.26c-.48,0-.95,0-1.44,0a37.76,37.76,0,0,0-10.85,1.6,30.43,30.43,0,0,0-9.67,4.76,24.45,24.45,0,0,0-3.56,3.25,25.89,25.89,0,0,0-3.38,4.77A23.21,23.21,0,0,0,477,69.5a25.48,25.48,0,0,0,2.27,11.24,27.67,27.67,0,0,0,6.79,8.62,63.63,63.63,0,0,0,11.34,7.7q6.79,3.75,16,8.25Q534.09,115.6,543.94,128a44.46,44.46,0,0,1,9.86,28.44,51.65,51.65,0,0,1-5.27,23.71,48.28,48.28,0,0,1-15.06,17.49,71.66,71.66,0,0,1-23.66,10.81,119.44,119.44,0,0,1-31.06,3.74,138.08,138.08,0,0,1-29.6-2.82l-.1,0a105.75,105.75,0,0,0-22.92-2.51H289.76A24.88,24.88,0,0,1,264.87,182H405.2a6.11,6.11,0,0,0,6.1-6.1v-.24a19.77,19.77,0,0,1,2.6-10.27,21.41,21.41,0,0,1,7.33-7.33,36.24,36.24,0,0,1,11.19-4.4,64.76,64.76,0,0,1,14.33-1.46,66,66,0,0,0,2.68,19.92,42.24,42.24,0,0,0,4.45,9.88,33.28,33.28,0,0,0,3,4.12,29.42,29.42,0,0,0,11.46,8.26A38.92,38.92,0,0,0,483,197a43.07,43.07,0,0,0,13.72-2,34.74,34.74,0,0,0,5.63-2.44,28.71,28.71,0,0,0,4.57-3.07,23.21,23.21,0,0,0,8.6-18.27,32,32,0,0,0-1.4-9.67A24,24,0,0,0,509,153a52.52,52.52,0,0,0-10.27-8.43A174.06,174.06,0,0,0,482,135.14a146.38,146.38,0,0,1-18.74-11.06l-1.33-1a14.68,14.68,0,0,0-8.69-2.83H131.7a12.43,12.43,0,0,1-12.44-12.43h0A12.44,12.44,0,0,1,131.7,95.42H436.3A3.69,3.69,0,0,0,440,91.06a59.24,59.24,0,0,1-1.07-11.54,43.94,43.94,0,0,1,4.94-20.66l0-.06a3.76,3.76,0,0,0-3.34-5.5H209.81A24.89,24.89,0,0,1,234.7,28.41H509.54a139.52,139.52,0,0,1,26.53,2.21,73.58,73.58,0,0,1,18.87,6q7.51,3.8,11.26,8.92A18.43,18.43,0,0,1,569.93,56.53Z"/></g></svg>