<svg xmlns="http://www.w3.org/2000/svg" viewBox="0 0 729.19 358"><defs><style>.cls-1{fill:#3b81f7;}</style></defs><title>DASH_LOGO_BLUE</title><g id="submit7_blue"><path class="cls-1" d="M126.58,323.26a55.16,55.16,0,0,1-11.76-1.11,29.7,29.7,0,0,1-8.37-3.06,14.26,14.26,0,0,1-5-4.59,10.56,10.56,0,0,1-1.67-5.76,7.85,7.85,0,0,1,1-4.08,8.55,8.55,0,0,1,2.91-2.92,14.77,14.77,0,0,1,4.45-1.75,26.36,26.36,0,0,1,5.7-.58,26.23,26.23,0,0,0,1.06,7.92,15.42,15.42,0,0,0,3,5.56,11.64,11.64,0,0,0,4.56,3.28,15.46,15.46,0,0,0,5.82,1.07,17.24,17.24,0,0,0,5.46-.8,12.27,12.27,0,0,0,4.05-2.19A9.28,9.28,0,0,0,141.2,307a12.68,12.68,0,0,0-.56-3.84,9.4,9.4,0,0,0-2-3.4,20.75,20.75,0,0,0-4.08-3.35,68.16,68.16,0,0,0-6.67-3.74,58.74,58.74,0,0,1-7.44-4.4,26.45,26.45,0,0,1-5.35-4.88,18.65,18.65,0,0,1-3.23-5.76,21.27,21.27,0,0,1-1.09-7.06,17.49,17.49,0,0,1,2-8.21,18.81,18.81,0,0,1,5.62-6.44,27.35,27.35,0,0,1,8.84-4.18,42.37,42.37,0,0,1,11.65-1.48,56.3,56.3,0,0,1,10.55.87,29.09,29.09,0,0,1,7.49,2.39,12.07,12.07,0,0,1,4.48,3.54,7.36,7.36,0,0,1,1.48,4.37,7.28,7.28,0,0,1-3.34,6.34q-3.33,2.31-10.91,2.31a24,24,0,0,0-.48-4.66,13.51,13.51,0,0,0-1.69-4.45,10.22,10.22,0,0,0-3.28-3.33,9.68,9.68,0,0,0-5.25-1.31,15.19,15.19,0,0,0-4.31.63,12.21,12.21,0,0,0-3.84,1.9A9.75,9.75,0,0,0,127,262a9.21,9.21,0,0,0-1.06,4.54,10.12,10.12,0,0,0,.9,4.47,11.11,11.11,0,0,0,2.7,3.43,25.22,25.22,0,0,0,4.51,3.06c1.8,1,3.91,2.08,6.35,3.28q8.21,4.08,12.13,9a17.66,17.66,0,0,1,3.92,11.29,20.67,20.67,0,0,1-2.09,9.43,19.16,19.16,0,0,1-6,6.94,28.48,28.48,0,0,1-9.4,4.3A47.39,47.39,0,0,1,126.58,323.26Z"/><path class="cls-1" d="M219,316.22a23.22,23.22,0,0,0,8.31-1.31,16,16,0,0,0,5.67-3.62,17.62,17.62,0,0,0,3.65-5.49,39,39,0,0,0,2.23-7l8.37-35.95c.1-.55.2-1.12.29-1.7a9.09,9.09,0,0,0,.13-1.26,2.59,2.59,0,0,0-.58-1.75,3.8,3.8,0,0,0-1.62-1.05,10.19,10.19,0,0,0-2.49-.48q-1.45-.12-3.15-.12H238.4l1.17-5.25h28.55l-1.22,5.25h-1.38a24.82,24.82,0,0,0-3.38.22,10.27,10.27,0,0,0-3,.85,6.39,6.39,0,0,0-2.36,1.84,7.92,7.92,0,0,0-1.46,3.16l-8.68,37.79a34.44,34.44,0,0,1-3.79,9.86,24,24,0,0,1-6.41,7.17,27.86,27.86,0,0,1-9.19,4.37,45.25,45.25,0,0,1-12.18,1.48,49.59,49.59,0,0,1-11.23-1.14,25.16,25.16,0,0,1-8.21-3.35,14.93,14.93,0,0,1-5.06-5.42,15.09,15.09,0,0,1-1.72-7.28c0-.52,0-1.17.1-1.95s.16-1.57.27-2.4.23-1.64.37-2.43.28-1.48.42-2.06l7.95-33.91a20.72,20.72,0,0,0,.63-3.4,2.59,2.59,0,0,0-.58-1.75,3.83,3.83,0,0,0-1.61-1.05,10.11,10.11,0,0,0-2.47-.48q-1.42-.12-3.12-.12h-1.43l1.22-5.25h37.5l-1.17,5.25h-1.43a26,26,0,0,0-3.47.22,11,11,0,0,0-3,.82,6.53,6.53,0,0,0-2.36,1.77,7.64,7.64,0,0,0-1.46,3.07l-8.21,35c-.14.58-.29,1.23-.45,1.94s-.3,1.45-.42,2.21-.23,1.53-.32,2.31a19.11,19.11,0,0,0-.13,2.19q0,5,3.39,7.58T219,316.22Z"/><path class="cls-1" d="M274.06,317h1.43a27.5,27.5,0,0,0,3.31-.2,9.38,9.38,0,0,0,2.94-.82,6.8,6.8,0,0,0,2.31-1.8,7.11,7.11,0,0,0,1.4-3.11l11.07-47.9q.27-1,.48-1.92a7.17,7.17,0,0,0,.21-1.33,2.59,2.59,0,0,0-.58-1.75,3.8,3.8,0,0,0-1.62-1.05,10.19,10.19,0,0,0-2.49-.48q-1.45-.12-3.15-.12H288l1.17-5.25h33.63q12.61,0,19,3.77a12.15,12.15,0,0,1,6.39,11.14,17.7,17.7,0,0,1-1.36,7.19,16,16,0,0,1-3.73,5.37,20,20,0,0,1-5.61,3.72,33.13,33.13,0,0,1-7,2.23l-.1.39a20.5,20.5,0,0,1,5.35,1.65,14.37,14.37,0,0,1,4.18,3,13,13,0,0,1,2.73,4.3,15.14,15.14,0,0,1,1,5.59,22.22,22.22,0,0,1-2,9.66,18.83,18.83,0,0,1-5.94,7.12,28.13,28.13,0,0,1-9.77,4.4,54.76,54.76,0,0,1-13.53,1.5H272.9Zm27.23-.78h7.52a23.71,23.71,0,0,0,7.81-1.12,12.45,12.45,0,0,0,5.22-3.3,13.28,13.28,0,0,0,2.94-5.42,27,27,0,0,0,.93-7.45q0-5.44-2.7-8.09t-8.37-2.65H307.8Zm7.94-34.2h6.09q7.69,0,11.1-3.67t3.42-10.47q0-5.28-2.6-7.91t-7.57-2.63h-4.82Z"/><path class="cls-1" d="M475.62,251.27l-1.17,5.25H473a25,25,0,0,0-3.39.22,10.45,10.45,0,0,0-3,.85,6.47,6.47,0,0,0-2.36,1.84,8.05,8.05,0,0,0-1.45,3.16l-11.13,48.77a7.12,7.12,0,0,0-.34,1.22,5.73,5.73,0,0,0-.13,1.07,2.49,2.49,0,0,0,.58,1.72,3.76,3.76,0,0,0,1.62,1,10,10,0,0,0,2.49.49q1.46.12,3.15.12h1.37l-1.16,5.29h-37l1.16-5.29h1.43a28.6,28.6,0,0,0,3.39-.2,9.32,9.32,0,0,0,3-.85,7.13,7.13,0,0,0,2.35-1.82A7,7,0,0,0,435,311l11.5-49.89-35.92,61.21h-7.46l-8.8-61.21-11.49,49.46c-.18.74-.31,1.38-.4,1.92a7.71,7.71,0,0,0-.13,1.19,2.49,2.49,0,0,0,.58,1.72,3.78,3.78,0,0,0,1.64,1,10.62,10.62,0,0,0,2.52.49q1.46.12,3.15.12h.37l-1.22,5.29H362.05l1.17-5.29h1.43a27.63,27.63,0,0,0,3.31-.2,9.38,9.38,0,0,0,2.94-.82,6.77,6.77,0,0,0,2.3-1.8,7.11,7.11,0,0,0,1.41-3.11l11.07-47.75a16.84,16.84,0,0,0,.68-3.4,2.59,2.59,0,0,0-.58-1.75,3.77,3.77,0,0,0-1.61-1.05,10.19,10.19,0,0,0-2.49-.48q-1.46-.12-3.15-.12h-1.38l1.16-5.25h30.25l7.31,48.34,28.39-48.34Z"/><path class="cls-1" d="M481.61,322.29l1.17-5.29h1.43a27.63,27.63,0,0,0,3.31-.2,9.45,9.45,0,0,0,2.94-.82,6.77,6.77,0,0,0,2.3-1.8,7.11,7.11,0,0,0,1.41-3.11l11.28-48.87a7.26,7.26,0,0,0,.34-1.21,5.82,5.82,0,0,0,.13-1.07,2.59,2.59,0,0,0-.58-1.75,3.77,3.77,0,0,0-1.61-1.05,10.19,10.19,0,0,0-2.49-.48q-1.46-.12-3.15-.12h-1.38l1.16-5.25h37.45l-1.22,5.25h-1.37a26,26,0,0,0-3.47.22,10.47,10.47,0,0,0-3,.85,6.62,6.62,0,0,0-2.38,1.84,7.27,7.27,0,0,0-1.43,3.16l-11.18,48.77c-.07.36-.16.76-.26,1.22a4.75,4.75,0,0,0-.16,1.07,2.49,2.49,0,0,0,.58,1.72,3.78,3.78,0,0,0,1.64,1,10.62,10.62,0,0,0,2.52.49q1.46.12,3.15.12h1.43l-1.22,5.29Z"/><path class="cls-1" d="M555.14,322.29l1.22-5.29h1.38a27.63,27.63,0,0,0,3.31-.2A9.53,9.53,0,0,0,564,316a6.77,6.77,0,0,0,2.3-1.8,7.63,7.63,0,0,0,1.46-3.11L580,257.34H571.3a13.87,13.87,0,0,0-4.32.59,8.55,8.55,0,0,0-3.07,1.72,10,10,0,0,0-2.2,2.79,26.85,26.85,0,0,0-1.69,3.84l-1.54,4.28h-7.26l5-19.29h67.48l-3.76,19.29h-7.31c0-.23.1-.74.19-1.53s.18-1.65.29-2.55.2-1.74.29-2.51.13-1.22.13-1.38a4.61,4.61,0,0,0-1.72-3.93q-1.72-1.32-5.9-1.32h-8.64l-12.5,54c-.07.36-.16.76-.26,1.22a4.75,4.75,0,0,0-.16,1.07,2.49,2.49,0,0,0,.58,1.72,3.78,3.78,0,0,0,1.64,1,10.62,10.62,0,0,0,2.52.49q1.45.12,3.15.12h1.43l-1.17,5.29Z"/><path class="cls-1" d="M569.93,62.85a18.35,18.35,0,0,1-8.4,16q-8.4,5.82-27.46,5.82a61.87,61.87,0,0,0-1.19-11.75,34.62,34.62,0,0,0-4.27-11.19,25.72,25.72,0,0,0-8.27-8.37,23.15,23.15,0,0,0-11.76-3.26c-.48,0-.95,0-1.44,0a38.1,38.1,0,0,0-10.85,1.59,30.46,30.46,0,0,0-9.67,4.77,23.83,23.83,0,0,0-3.56,3.24,26.58,26.58,0,0,0-3.38,4.77A23.24,23.24,0,0,0,477,75.82a25.5,25.5,0,0,0,2.27,11.25,27.64,27.64,0,0,0,6.79,8.61,63.1,63.1,0,0,0,11.34,7.7q6.79,3.75,16,8.26,20.69,10.27,30.54,22.68a44.45,44.45,0,0,1,9.86,28.43,51.59,51.59,0,0,1-5.27,23.71A48.12,48.12,0,0,1,533.47,204a71.67,71.67,0,0,1-23.66,10.82,119.89,119.89,0,0,1-31.06,3.73,138.78,138.78,0,0,1-29.6-2.81l-.1,0a106.36,106.36,0,0,0-22.92-2.5H289.76a24.89,24.89,0,0,1-24.89-24.89H405.2a6.1,6.1,0,0,0,6.1-6.1v-.23a19.75,19.75,0,0,1,2.6-10.27,21.53,21.53,0,0,1,7.33-7.34,36.23,36.23,0,0,1,11.19-4.39,64.74,64.74,0,0,1,14.33-1.47,65.91,65.91,0,0,0,2.68,19.92,41.87,41.87,0,0,0,4.45,9.88,32.54,32.54,0,0,0,3,4.12,29.42,29.42,0,0,0,11.46,8.26A38.73,38.73,0,0,0,483,203.34a43.06,43.06,0,0,0,13.72-2,33.88,33.88,0,0,0,5.63-2.44,27.43,27.43,0,0,0,4.57-3.07,23.21,23.21,0,0,0,8.6-18.27,31.89,31.89,0,0,0-1.4-9.66,23.87,23.87,0,0,0-5.13-8.56,52.52,52.52,0,0,0-10.27-8.43A169.87,169.87,0,0,0,482,141.47a148.74,148.74,0,0,1-18.74-11.06c-.45-.32-.9-.64-1.33-1a14.67,14.67,0,0,0-8.69-2.82H131.7a12.44,12.44,0,0,1-12.44-12.44h0a12.44,12.44,0,0,1,12.44-12.44H436.3A3.68,3.68,0,0,0,440,97.39a59.39,59.39,0,0,1-1.07-11.54,44,44,0,0,1,4.94-20.67l0-.06a3.76,3.76,0,0,0-3.34-5.5H209.81A24.88,24.88,0,0,1,234.7,34.74H509.54A139.52,139.52,0,0,1,536.07,37a73.19,73.19,0,0,1,18.87,6q7.51,3.78,11.26,8.91A18.47,18.47,0,0,1,569.93,62.85Z"/></g></svg>