<svg xmlns="http://www.w3.org/2000/svg" viewBox="0 0 729.19 358"><defs><style>.cls-1{fill:#f23557;}</style></defs><title>DHAS_LOGO_RED</title><g id="submit7_red"><path class="cls-1" d="M113.69,323.26a55.16,55.16,0,0,1-11.76-1.11,29.7,29.7,0,0,1-8.37-3.06,14.26,14.26,0,0,1-5-4.59,10.64,10.64,0,0,1-1.67-5.76,7.93,7.93,0,0,1,1-4.08,8.5,8.5,0,0,1,2.92-2.92A14.57,14.57,0,0,1,95.29,300a26.27,26.27,0,0,1,5.69-.58,26.23,26.23,0,0,0,1.06,7.92,15.43,15.43,0,0,0,3,5.56,11.68,11.68,0,0,0,4.55,3.28,15.51,15.51,0,0,0,5.83,1.07,17.17,17.17,0,0,0,5.45-.8,12.61,12.61,0,0,0,4.06-2.19,9.23,9.23,0,0,0,3.41-7.26,12.68,12.68,0,0,0-.55-3.84,9.54,9.54,0,0,0-2-3.4,20.75,20.75,0,0,0-4.08-3.35,68.47,68.47,0,0,0-6.68-3.74,60,60,0,0,1-7.44-4.4,26.72,26.72,0,0,1-5.35-4.88,18.65,18.65,0,0,1-3.23-5.76,21.54,21.54,0,0,1-1.08-7.06,17.48,17.48,0,0,1,2-8.21,18.81,18.81,0,0,1,5.62-6.44,27.4,27.4,0,0,1,8.85-4.18,42.32,42.32,0,0,1,11.65-1.48,56.18,56.18,0,0,1,10.54.87,29.09,29.09,0,0,1,7.49,2.39,12.07,12.07,0,0,1,4.48,3.54,7.5,7.5,0,0,1-1.85,10.71q-3.34,2.31-10.92,2.31a24,24,0,0,0-.47-4.66,13.75,13.75,0,0,0-1.7-4.45,10.13,10.13,0,0,0-3.28-3.33,9.67,9.67,0,0,0-5.24-1.31,15.26,15.26,0,0,0-4.32.63,12.32,12.32,0,0,0-3.84,1.9,9.87,9.87,0,0,0-2.76,3.18,9.32,9.32,0,0,0-1.06,4.54,10.12,10.12,0,0,0,.9,4.47,11.14,11.14,0,0,0,2.71,3.43,25.48,25.48,0,0,0,4.5,3.06q2.7,1.49,6.35,3.28,8.22,4.08,12.13,9a17.61,17.61,0,0,1,3.92,11.29,20.54,20.54,0,0,1-2.09,9.43,19.13,19.13,0,0,1-6,6.94,28.53,28.53,0,0,1-9.41,4.3A47.39,47.39,0,0,1,113.69,323.26Z"/><path class="cls-1" d="M206.08,316.22a23.28,23.28,0,0,0,8.32-1.31,16,16,0,0,0,5.66-3.62,17.83,17.83,0,0,0,3.66-5.49,38.21,38.21,0,0,0,2.22-7l8.37-35.95c.11-.55.2-1.12.29-1.7a9.09,9.09,0,0,0,.13-1.26,2.59,2.59,0,0,0-.58-1.75,3.77,3.77,0,0,0-1.61-1.05,10.19,10.19,0,0,0-2.49-.48q-1.45-.12-3.15-.12h-1.38l1.16-5.25h28.55L254,256.52h-1.38a24.86,24.86,0,0,0-3.39.22,10.36,10.36,0,0,0-3,.85,6.39,6.39,0,0,0-2.36,1.84,7.91,7.91,0,0,0-1.45,3.16l-8.69,37.79a34.15,34.15,0,0,1-3.79,9.86,23.86,23.86,0,0,1-6.41,7.17,27.76,27.76,0,0,1-9.19,4.37,45.25,45.25,0,0,1-12.18,1.48,49.59,49.59,0,0,1-11.23-1.14,25.16,25.16,0,0,1-8.21-3.35,14.51,14.51,0,0,1-6.78-12.7c0-.52,0-1.17.11-1.95s.16-1.57.26-2.4.23-1.64.37-2.43.28-1.48.43-2.06l7.94-33.91a20.05,20.05,0,0,0,.64-3.4,2.59,2.59,0,0,0-.59-1.75,3.71,3.71,0,0,0-1.61-1.05,10.12,10.12,0,0,0-2.46-.48c-1-.08-2-.12-3.13-.12h-1.43l1.22-5.25h37.5L214,256.52h-1.43a25.8,25.8,0,0,0-3.46.22,11,11,0,0,0-3,.82,6.62,6.62,0,0,0-2.36,1.77,7.5,7.5,0,0,0-1.45,3.07l-8.21,35c-.15.58-.3,1.23-.46,1.94s-.29,1.45-.42,2.21-.23,1.53-.32,2.31a19.11,19.11,0,0,0-.13,2.19q0,5,3.39,7.58T206.08,316.22Z"/><path class="cls-1" d="M261.18,317h1.43a27.63,27.63,0,0,0,3.31-.2,9.53,9.53,0,0,0,2.94-.82,6.77,6.77,0,0,0,2.3-1.8,7.11,7.11,0,0,0,1.4-3.11l11.08-47.9c.17-.65.33-1.28.47-1.92a7.17,7.17,0,0,0,.21-1.33,2.59,2.59,0,0,0-.58-1.75,3.83,3.83,0,0,0-1.61-1.05,10.19,10.19,0,0,0-2.49-.48c-1-.08-2-.12-3.16-.12h-1.37l1.16-5.25h33.64q12.6,0,19,3.77a12.16,12.16,0,0,1,6.38,11.14,17.91,17.91,0,0,1-1.35,7.19,16.07,16.07,0,0,1-3.74,5.37,20,20,0,0,1-5.61,3.72,33.22,33.22,0,0,1-7,2.23l-.11.39a20.38,20.38,0,0,1,5.35,1.65,14.56,14.56,0,0,1,4.19,3,13.18,13.18,0,0,1,2.72,4.3,14.93,14.93,0,0,1,1,5.59,22.22,22.22,0,0,1-2,9.66,18.81,18.81,0,0,1-5.93,7.12,28.22,28.22,0,0,1-9.77,4.4,54.9,54.9,0,0,1-13.54,1.5H260Zm27.22-.78h7.52a23.78,23.78,0,0,0,7.82-1.12,12.48,12.48,0,0,0,5.21-3.3,13.16,13.16,0,0,0,2.94-5.42,27,27,0,0,0,.93-7.45q0-5.44-2.7-8.09t-8.37-2.65h-6.83Zm8-34.2h6.09q7.68,0,11.1-3.67T317,267.88q0-5.28-2.59-7.91t-7.58-2.63H302Z"/><path class="cls-1" d="M462.73,251.27l-1.17,5.25h-1.43a25.07,25.07,0,0,0-3.39.22,10.3,10.3,0,0,0-3,.85,6.39,6.39,0,0,0-2.36,1.84,7.92,7.92,0,0,0-1.46,3.16l-11.12,48.77a7.1,7.1,0,0,0-.35,1.22,5.73,5.73,0,0,0-.13,1.07,2.49,2.49,0,0,0,.58,1.72,3.76,3.76,0,0,0,1.62,1,10.16,10.16,0,0,0,2.49.49q1.46.12,3.15.12h1.38l-1.17,5.29h-37l1.17-5.29H412a28.86,28.86,0,0,0,3.39-.2,9.26,9.26,0,0,0,3-.85,7.27,7.27,0,0,0,2.36-1.82,7.07,7.07,0,0,0,1.43-3.16l11.49-49.89-35.91,61.21h-7.47l-8.79-61.21L370,310.54c-.17.74-.31,1.38-.39,1.92a8,8,0,0,0-.14,1.19,2.49,2.49,0,0,0,.59,1.72,3.66,3.66,0,0,0,1.64,1,10.43,10.43,0,0,0,2.51.49c1,.08,2,.12,3.16.12h.37l-1.22,5.29H349.17l1.16-5.29h1.43a27.63,27.63,0,0,0,3.31-.2A9.38,9.38,0,0,0,358,316a6.9,6.9,0,0,0,2.31-1.8,7.11,7.11,0,0,0,1.4-3.11l11.07-47.75a17.12,17.12,0,0,0,.69-3.4,2.64,2.64,0,0,0-.58-1.75,3.8,3.8,0,0,0-1.62-1.05,10.19,10.19,0,0,0-2.49-.48q-1.46-.12-3.15-.12h-1.38l1.17-5.25h30.24L403,299.61l28.39-48.34Z"/><path class="cls-1" d="M468.73,322.29l1.16-5.29h1.43a27.63,27.63,0,0,0,3.31-.2,9.38,9.38,0,0,0,2.94-.82,6.9,6.9,0,0,0,2.31-1.8,7.11,7.11,0,0,0,1.4-3.11l11.28-48.87a7.24,7.24,0,0,0,.35-1.21,6.87,6.87,0,0,0,.13-1.07,2.64,2.64,0,0,0-.58-1.75,3.8,3.8,0,0,0-1.62-1.05,10.19,10.19,0,0,0-2.49-.48q-1.46-.12-3.15-.12h-1.38l1.17-5.25h37.45l-1.22,5.25h-1.38a26,26,0,0,0-3.47.22,10.47,10.47,0,0,0-3,.85,6.71,6.71,0,0,0-2.38,1.84,7.27,7.27,0,0,0-1.43,3.16l-11.18,48.77c-.07.36-.15.76-.26,1.22a4.75,4.75,0,0,0-.16,1.07,2.49,2.49,0,0,0,.58,1.72,3.76,3.76,0,0,0,1.65,1,10.43,10.43,0,0,0,2.51.49q1.46.12,3.15.12h1.43L506,322.29Z"/><path class="cls-1" d="M542.26,322.29l1.21-5.29h1.38a27.63,27.63,0,0,0,3.31-.2,9.38,9.38,0,0,0,2.94-.82,6.77,6.77,0,0,0,2.3-1.8,7.5,7.5,0,0,0,1.46-3.11l12.24-53.73h-8.69a14,14,0,0,0-4.32.59,8.63,8.63,0,0,0-3.07,1.72,10.22,10.22,0,0,0-2.2,2.79,28,28,0,0,0-1.69,3.84l-1.54,4.28h-7.25l5-19.29H610.8L607,270.56h-7.3q0-.35.18-1.53c.09-.8.19-1.65.29-2.55s.2-1.75.29-2.51.14-1.22.14-1.38a4.65,4.65,0,0,0-1.73-3.94q-1.71-1.31-5.9-1.31h-8.64l-12.5,54c-.07.36-.15.76-.26,1.22a4.75,4.75,0,0,0-.16,1.07,2.49,2.49,0,0,0,.58,1.72,3.76,3.76,0,0,0,1.65,1,10.43,10.43,0,0,0,2.51.49q1.46.12,3.15.12h1.43l-1.16,5.29Z"/><path class="cls-1" d="M557,62.85a18.35,18.35,0,0,1-8.4,16q-8.4,5.82-27.46,5.82A61.87,61.87,0,0,0,520,72.88a34.6,34.6,0,0,0-4.26-11.19,25.85,25.85,0,0,0-8.28-8.37,23.15,23.15,0,0,0-11.76-3.26c-.47,0-.95,0-1.43,0a38.17,38.17,0,0,0-10.86,1.59,30.56,30.56,0,0,0-9.67,4.77,24.33,24.33,0,0,0-3.56,3.24,26,26,0,0,0-3.37,4.77,23.24,23.24,0,0,0-2.67,11.43,25.64,25.64,0,0,0,2.26,11.25,27.53,27.53,0,0,0,6.8,8.61,63,63,0,0,0,11.33,7.7q6.81,3.75,16,8.26,20.67,10.27,30.53,22.68a44.39,44.39,0,0,1,9.86,28.43,51.59,51.59,0,0,1-5.27,23.71A48.12,48.12,0,0,1,520.58,204a71.71,71.71,0,0,1-23.65,10.82,120,120,0,0,1-31.07,3.73,138.68,138.68,0,0,1-29.59-2.81l-.1,0a106.5,106.5,0,0,0-22.92-2.5H276.87A24.89,24.89,0,0,1,252,188.27H392.32a6.1,6.1,0,0,0,6.09-6.1v-.23a19.75,19.75,0,0,1,2.6-10.27,21.65,21.65,0,0,1,7.34-7.34,36.17,36.17,0,0,1,11.18-4.39,64.77,64.77,0,0,1,14.34-1.47,66.2,66.2,0,0,0,2.67,19.92,41.87,41.87,0,0,0,4.45,9.88,31.65,31.65,0,0,0,3,4.12,29.18,29.18,0,0,0,11.46,8.26,38.64,38.64,0,0,0,14.66,2.69,43.42,43.42,0,0,0,13.73-2,35.54,35.54,0,0,0,5.63-2.45,27.34,27.34,0,0,0,4.56-3.07,23.26,23.26,0,0,0,8.61-18.27,31.89,31.89,0,0,0-1.41-9.66,23.58,23.58,0,0,0-5.13-8.56,52.22,52.22,0,0,0-10.27-8.43,170.74,170.74,0,0,0-16.78-9.42,148.19,148.19,0,0,1-18.75-11.06l-1.33-1a14.65,14.65,0,0,0-8.69-2.82H118.81a12.44,12.44,0,0,1-12.44-12.44h0a12.44,12.44,0,0,1,12.44-12.44h304.6a3.68,3.68,0,0,0,3.65-4.35A59.41,59.41,0,0,1,426,85.85a43.86,43.86,0,0,1,4.94-20.67l0-.06a3.77,3.77,0,0,0-3.34-5.5H196.92a24.88,24.88,0,0,1,24.89-24.88H496.65A139.52,139.52,0,0,1,523.18,37a73.19,73.19,0,0,1,18.87,6q7.51,3.78,11.26,8.91A18.47,18.47,0,0,1,557,62.85Z"/></g></svg>