<svg xmlns="http://www.w3.org/2000/svg" viewBox="0 0 941.62 244.95"><defs><style>.cls-1{fill:#fff;}</style></defs><title>nav-logo</title><g id="Layer_12" data-name="Layer 12"><path class="cls-1" d="M487.74,164.4a23.06,23.06,0,0,0,8.32-1.31,15.7,15.7,0,0,0,5.66-3.62,17.59,17.59,0,0,0,3.66-5.49,38.21,38.21,0,0,0,2.22-7L516,111.06c.11-.55.21-1.11.29-1.7a9.54,9.54,0,0,0,.14-1.26,2.61,2.61,0,0,0-.59-1.75,3.61,3.61,0,0,0-1.61-1,10.16,10.16,0,0,0-2.49-.49q-1.45-.12-3.15-.12h-1.38l1.17-5.25h28.54l-1.21,5.25H534.3a24.86,24.86,0,0,0-3.39.22,10.68,10.68,0,0,0-3,.85,6.5,6.5,0,0,0-2.36,1.85,7.93,7.93,0,0,0-1.45,3.15l-8.69,37.8a34.38,34.38,0,0,1-3.79,9.86,23.69,23.69,0,0,1-6.41,7.16A27.78,27.78,0,0,1,496,170a45.65,45.65,0,0,1-12.18,1.48,49.59,49.59,0,0,1-11.23-1.14,25,25,0,0,1-8.21-3.36,15,15,0,0,1-5.06-5.41,15.27,15.27,0,0,1-1.72-7.29c0-.52,0-1.17.11-1.94s.16-1.58.26-2.41.23-1.63.37-2.43.29-1.48.43-2.06l7.94-33.91a19.88,19.88,0,0,0,.64-3.4,2.61,2.61,0,0,0-.59-1.75,3.61,3.61,0,0,0-1.61-1,10.09,10.09,0,0,0-2.46-.49c-1-.08-2-.12-3.13-.12h-1.43l1.22-5.25h37.5l-1.16,5.25h-1.43a25.85,25.85,0,0,0-3.47.22,11.38,11.38,0,0,0-3.05.82,6.53,6.53,0,0,0-2.36,1.78,7.52,7.52,0,0,0-1.45,3.06l-8.21,35c-.14.59-.29,1.23-.45,2s-.3,1.45-.43,2.21-.23,1.53-.32,2.31a21.33,21.33,0,0,0-.13,2.18c0,3.34,1.13,5.86,3.39,7.58S483.36,164.4,487.74,164.4Z"/><path class="cls-1" d="M542.84,165.18h1.43a27.64,27.64,0,0,0,3.31-.19,9.39,9.39,0,0,0,2.94-.83,6.77,6.77,0,0,0,2.3-1.8,7.17,7.17,0,0,0,1.41-3.11l11.07-47.89c.17-.65.33-1.29.47-1.92a7.24,7.24,0,0,0,.21-1.34,2.6,2.6,0,0,0-.58-1.75,3.72,3.72,0,0,0-1.61-1,10.16,10.16,0,0,0-2.49-.49c-1-.08-2-.12-3.15-.12h-1.38l1.16-5.25h33.64q12.6,0,19,3.77a12.18,12.18,0,0,1,6.38,11.15,17.91,17.91,0,0,1-1.35,7.19,16.27,16.27,0,0,1-3.74,5.37,20.07,20.07,0,0,1-5.61,3.71,33.44,33.44,0,0,1-7,2.24l-.11.39a19.66,19.66,0,0,1,5.35,1.65,14.21,14.21,0,0,1,4.19,3,13.18,13.18,0,0,1,2.72,4.3,15,15,0,0,1,1,5.59,22.26,22.26,0,0,1-2,9.67,18.7,18.7,0,0,1-5.93,7.11,28,28,0,0,1-9.77,4.4,54.87,54.87,0,0,1-13.54,1.51H541.67Zm27.22-.78h7.53a24,24,0,0,0,7.81-1.11,12.59,12.59,0,0,0,5.21-3.31,13,13,0,0,0,2.94-5.41,27.07,27.07,0,0,0,.93-7.46c0-3.63-.9-6.32-2.7-8.09s-4.59-2.65-8.37-2.65h-6.83Zm8-34.2h6.09q7.68,0,11.1-3.66t3.41-10.47q0-5.29-2.59-7.92t-7.58-2.62h-4.82Z"/><path class="cls-1" d="M744.39,99.45l-1.17,5.25h-1.43a25.07,25.07,0,0,0-3.39.22,10.61,10.61,0,0,0-3,.85,6.42,6.42,0,0,0-2.36,1.85,7.94,7.94,0,0,0-1.46,3.15l-11.12,48.78a7,7,0,0,0-.35,1.21,6.73,6.73,0,0,0-.13,1.07,2.48,2.48,0,0,0,.59,1.72,3.67,3.67,0,0,0,1.61,1,9.71,9.71,0,0,0,2.49.49q1.46.12,3.15.12h1.38l-1.17,5.3h-37l1.17-5.3h1.43A28.88,28.88,0,0,0,697,165a9.52,9.52,0,0,0,3-.85,7.44,7.44,0,0,0,2.36-1.82,7.07,7.07,0,0,0,1.43-3.16l11.49-49.89L679.4,170.48h-7.47l-8.79-61.21-11.5,49.45c-.17.75-.31,1.39-.39,1.92a8,8,0,0,0-.14,1.19,2.48,2.48,0,0,0,.59,1.72,3.66,3.66,0,0,0,1.64,1,10,10,0,0,0,2.51.49c1,.08,2,.12,3.16.12h.37l-1.22,5.3H630.83l1.16-5.3h1.43a27.52,27.52,0,0,0,3.31-.19,9.39,9.39,0,0,0,2.94-.83,6.8,6.8,0,0,0,2.31-1.8,7.05,7.05,0,0,0,1.4-3.11l11.07-47.75a17,17,0,0,0,.69-3.4,2.66,2.66,0,0,0-.58-1.75,3.7,3.7,0,0,0-1.62-1,10.16,10.16,0,0,0-2.49-.49q-1.46-.12-3.15-.12h-1.38l1.17-5.25h30.24l7.31,48.34L713,99.45Z"/><path class="cls-1" d="M750.39,170.48l1.16-5.3H753a27.52,27.52,0,0,0,3.31-.19,9.39,9.39,0,0,0,2.94-.83,6.9,6.9,0,0,0,2.31-1.8,7.05,7.05,0,0,0,1.4-3.11l11.28-48.87a7,7,0,0,0,.35-1.21,6.73,6.73,0,0,0,.13-1.07,2.66,2.66,0,0,0-.58-1.75,3.7,3.7,0,0,0-1.62-1,10.16,10.16,0,0,0-2.49-.49q-1.46-.12-3.15-.12h-1.38l1.17-5.25H804.1l-1.22,5.25H801.5a26,26,0,0,0-3.47.22,10.63,10.63,0,0,0-3,.85,6.68,6.68,0,0,0-2.39,1.85,7.29,7.29,0,0,0-1.43,3.15L780,159.55c-.08.35-.16.76-.27,1.21a5.42,5.42,0,0,0-.16,1.07,2.52,2.52,0,0,0,.58,1.72,3.76,3.76,0,0,0,1.65,1,10,10,0,0,0,2.51.49q1.46.12,3.15.12h1.43l-1.21,5.3Z"/><path class="cls-1" d="M823.92,170.48l1.21-5.3h1.38a27.64,27.64,0,0,0,3.31-.19,9.39,9.39,0,0,0,2.94-.83,6.9,6.9,0,0,0,2.31-1.8,7.56,7.56,0,0,0,1.45-3.11l12.24-53.72h-8.69a14,14,0,0,0-4.32.58,8.79,8.79,0,0,0-3.07,1.72,10.42,10.42,0,0,0-2.2,2.8,28.41,28.41,0,0,0-1.69,3.83l-1.54,4.28H820l5-19.29h67.48l-3.76,19.29h-7.31q0-.34.18-1.53c.09-.79.19-1.64.29-2.55s.21-1.74.29-2.5.14-1.22.14-1.39a4.64,4.64,0,0,0-1.72-3.93c-1.15-.88-3.12-1.31-5.91-1.31H866l-12.5,54c-.08.35-.16.76-.27,1.21a4.75,4.75,0,0,0-.16,1.07,2.52,2.52,0,0,0,.58,1.72,3.76,3.76,0,0,0,1.65,1,10,10,0,0,0,2.51.49q1.45.12,3.15.12h1.43l-1.16,5.3Z"/><path class="cls-1" d="M453.81,56.53a18.36,18.36,0,0,1-8.4,16Q437,78.3,418,78.3a61.87,61.87,0,0,0-1.19-11.75,34.65,34.65,0,0,0-4.27-11.18A25.75,25.75,0,0,0,404.22,47a23.38,23.38,0,0,0-11.76-3.26c-.48,0-.95,0-1.44,0a37.83,37.83,0,0,0-10.86,1.6,30.49,30.49,0,0,0-9.66,4.76,23.94,23.94,0,0,0-3.56,3.25,25.89,25.89,0,0,0-3.38,4.77,23.21,23.21,0,0,0-2.67,11.43,25.48,25.48,0,0,0,2.27,11.24A27.67,27.67,0,0,0,370,89.36a63.89,63.89,0,0,0,11.33,7.7q6.81,3.75,16,8.25Q418,115.6,427.81,128a44.41,44.41,0,0,1,9.87,28.44,51.65,51.65,0,0,1-5.27,23.71,48.21,48.21,0,0,1-15.07,17.49,71.6,71.6,0,0,1-23.65,10.81,119.49,119.49,0,0,1-31.06,3.74,138,138,0,0,1-29.6-2.82l-.1,0A105.82,105.82,0,0,0,310,206.83H173.64A24.88,24.88,0,0,1,148.75,182H289.08a6.09,6.09,0,0,0,6.09-6.1v-.24a19.87,19.87,0,0,1,2.6-10.27,21.53,21.53,0,0,1,7.34-7.33,36.24,36.24,0,0,1,11.19-4.4,64.76,64.76,0,0,1,14.33-1.46,66.29,66.29,0,0,0,2.67,19.92,42.67,42.67,0,0,0,4.46,9.88,32.28,32.28,0,0,0,3,4.12,29.42,29.42,0,0,0,11.46,8.26A38.91,38.91,0,0,0,366.89,197a43.09,43.09,0,0,0,13.73-2,34.74,34.74,0,0,0,5.63-2.44,28.71,28.71,0,0,0,4.57-3.07,23.29,23.29,0,0,0,8.6-18.27,31.64,31.64,0,0,0-1.41-9.67,23.77,23.77,0,0,0-5.12-8.56,52.82,52.82,0,0,0-10.27-8.43,174.06,174.06,0,0,0-16.79-9.42,146.38,146.38,0,0,1-18.74-11.06l-1.34-1a14.63,14.63,0,0,0-8.68-2.83H15.58A12.43,12.43,0,0,1,3.14,107.86h0A12.44,12.44,0,0,1,15.58,95.42h304.6a3.69,3.69,0,0,0,3.65-4.36,59.24,59.24,0,0,1-1.07-11.54,43.82,43.82,0,0,1,4.94-20.66l0-.06a3.76,3.76,0,0,0-3.34-5.5H93.69a24.89,24.89,0,0,1,24.89-24.89H393.42a139.33,139.33,0,0,1,26.52,2.21,73.32,73.32,0,0,1,18.87,6q7.53,3.8,11.26,8.92A18.37,18.37,0,0,1,453.81,56.53Z"/><rect class="cls-1" x="414.38" y="181.7" width="463.91" height="12.26"/></g></svg>